<svg xmlns="http://www.w3.org/2000/svg" xmlns:xlink="http://www.w3.org/1999/xlink" viewBox="0 0 58.57 57.02"><defs><style>.cls-1{fill:none;}.cls-2{clip-path:url(#clip-path);}.cls-3{clip-path:url(#clip-path-2);}</style><clipPath id="clip-path" transform="translate(-5.04 -1.99)"><rect class="cls-1" x="5.87" y="7.15" width="58.21" height="50.19" transform="translate(-7.64 11.1) rotate(-16.28)"/></clipPath><clipPath id="clip-path-2" transform="translate(-5.04 -1.99)"><rect class="cls-1" x="5.87" y="7.15" width="58.21" height="50.19" transform="translate(-7.64 11.1) rotate(-16.28)"/></clipPath></defs><title>Artwork 1 2</title><g id="Layer_2" data-name="Layer 2"><g id="Layer_1-2" data-name="Layer 1"><g id="Artwork_1" data-name="Artwork 1"><g class="cls-2"><g class="cls-3"><path d="M61.61,19.64C58.46,8.84,52.69,1,48.7,2.09h0L44.23,3.4A74.6,74.6,0,0,1,21.5,21.93a48.16,48.16,0,0,0,1.77,8.91,48.13,48.13,0,0,0,3.3,8.46A74.56,74.56,0,0,1,55.7,42.68l4.53-1.32h0c3.95-1.23,4.59-10.93,1.44-21.73Zm-3.82,19.2a2.35,2.35,0,0,1-1.6-.44,11.65,11.65,0,0,1-2.91-2.84,37.34,37.34,0,0,1-5.6-11.85,37.24,37.24,0,0,1-1.66-13,11.55,11.55,0,0,1,.93-4c.19-.4.59-1.08,1.11-1.23a2.35,2.35,0,0,1,1.6.44A11.63,11.63,0,0,1,52.57,8.8a37.34,37.34,0,0,1,5.6,11.85,37.24,37.24,0,0,1,1.66,13,11.49,11.49,0,0,1-.93,4c-.19.4-.59,1.08-1.11,1.23m-38.32-6.9a54.18,54.18,0,0,1-1.74-8.19,56,56,0,0,1-7.5,2.79L6.58,27.61,5,33.58l1.38,4.74,4.51,4.21,3.66-1.07a56,56,0,0,1,7.82-1.68,54.15,54.15,0,0,1-2.95-7.84Zm9.69,9.6-7.37.72,9.52,16a1.52,1.52,0,0,0,2.29.42l5.72-4.44a1.52,1.52,0,0,0,.16-2.33L29.16,41.53Z" transform="translate(-5.04 -1.99)"/></g></g></g></g></g></svg>