<?xml version="1.0" encoding="utf-8"?>
<!-- Generator: Adobe Illustrator 20.0.0, SVG Export Plug-In . SVG Version: 6.00 Build 0)  -->
<svg version="1.1" id="Layer_1" xmlns="http://www.w3.org/2000/svg" xmlns:xlink="http://www.w3.org/1999/xlink" x="0px" y="0px"
	 viewBox="0 0 18.6 17.5" style="enable-background:new 0 0 18.6 17.5;" xml:space="preserve">
<title>Asset 4</title>
<path id="Layer_2" d="M18.5,4.1c-0.2-0.2-0.4-0.4-0.7-0.4H5l-0.6-3C4.3,0.3,4,0,3.5,0H0.9C0.4,0.1,0,0.5,0.1,1
	c0,0.4,0.4,0.7,0.8,0.8h1.9l2,10.1c0.1,0.4,0.4,0.7,0.9,0.7h9.5c0.4,0,0.7-0.2,0.8-0.6l2.5-7.2C18.7,4.6,18.6,4.3,18.5,4.1z
	 M6.3,13.9c1,0,1.8,0.8,1.8,1.8s-0.8,1.8-1.8,1.8s-1.8-0.8-1.8-1.8S5.3,13.9,6.3,13.9z M14.5,13.9c1,0,1.8,0.8,1.8,1.8
	s-0.8,1.8-1.8,1.8s-1.8-0.8-1.8-1.8S13.5,13.9,14.5,13.9z"/>
</svg>
