<svg id="Layer_1" data-name="Layer 1" xmlns="http://www.w3.org/2000/svg" viewBox="0 0 386 110.12"><defs><style>.cls-1{fill:#4a3b15;}.cls-2{fill:#9cc5ca;fill-rule:evenodd;}</style></defs><title>SF-logo-horizontal-RGB</title><path class="cls-1" d="M159.63,52.18a14.71,14.71,0,0,1-1.56,1q-.86.48-1.68,1a1.21,1.21,0,0,0-.59.74,4.28,4.28,0,0,0-.13,1.13c0,.44.12.71.36.81a1.65,1.65,0,0,0,.59.15h.07a11.09,11.09,0,0,0,3.61-.82,15.75,15.75,0,0,0,3.55-1.94,12,12,0,0,0,2.7-2.68,5.19,5.19,0,0,0,1.08-3,6.73,6.73,0,0,0-.68-3.16,6.17,6.17,0,0,0-1.81-2.13,9.15,9.15,0,0,0-2.59-1.32,18.36,18.36,0,0,0-3-.71,26.16,26.16,0,0,0-3-.28q-1.5,0-2.72,0c-1.49,0-3.27.08-5.32.25s-4.27.42-6.63.76-4.8.78-7.32,1.32-5,1.18-7.39,1.91a59.17,59.17,0,0,0-6.83,2.54,30.27,30.27,0,0,0-5.64,3.22,15.47,15.47,0,0,0-3.84,3.92,8.31,8.31,0,0,0-1.42,4.68,4.76,4.76,0,0,0,1.22,3.22A11.61,11.61,0,0,0,114,65.17a27.24,27.24,0,0,0,4.9,2q2.79.86,5.95,1.55t6.46,1.3q3.31.6,6.46,1.22t5.95,1.27a40,40,0,0,1,4.89,1.45,11.78,11.78,0,0,1,3.31,1.8,3,3,0,0,1,1.22,2.33,4.41,4.41,0,0,1-1.42,3.41,9.69,9.69,0,0,1-3.94,2,29.88,29.88,0,0,1-6,1q-3.44.26-7.5.26a29.39,29.39,0,0,1-3.58-.23q-1.89-.23-3.79-.59t-3.66-.77c-1.18-.27-2.22-.53-3.15-.77l-2.28-.59a7,7,0,0,0-1.05-.23.62.62,0,0,0-.63.39,2.28,2.28,0,0,0-.16.89,4.53,4.53,0,0,0,.16,1.22,1.7,1.7,0,0,0,.43.82,5.53,5.53,0,0,0,1.5.82,27.42,27.42,0,0,0,2.68.94c1.06.32,2.22.63,3.5.92s2.6.56,4,.79,2.75.42,4.14.56a38.12,38.12,0,0,0,3.92.22,76.72,76.72,0,0,0,9.23-.49,47.27,47.27,0,0,0,7-1.35,24.51,24.51,0,0,0,5.09-2A14.16,14.16,0,0,0,161,82.83a8.39,8.39,0,0,0,1.85-2.73,7.63,7.63,0,0,0,.56-2.8,5.31,5.31,0,0,0-1.23-3.46,11.65,11.65,0,0,0-3.36-2.72A28,28,0,0,0,153.86,69q-2.82-.94-6-1.7t-6.54-1.42l-6.54-1.3q-3.2-.64-6-1.33a38.09,38.09,0,0,1-4.94-1.53,12.12,12.12,0,0,1-3.36-1.88,3,3,0,0,1-1.23-2.36,4.6,4.6,0,0,1,1.15-3,11.51,11.51,0,0,1,3-2.47A24.31,24.31,0,0,1,127.78,50q2.47-.84,5.14-1.47t5.31-1.06q2.64-.43,4.88-.68t3.89-.36q1.65-.11,2.31-.11,3.07,0,5.32.13a20.08,20.08,0,0,1,3.72.51,5.44,5.44,0,0,1,2.19,1,2,2,0,0,1,.73,1.62A2.36,2.36,0,0,1,160.8,51,5.54,5.54,0,0,1,159.63,52.18Z" transform="translate(0 0)"/><path class="cls-1" d="M183.75,69.88a10.89,10.89,0,0,0-3.45-2.13A11.64,11.64,0,0,0,176,67a10.14,10.14,0,0,0-3.22.51A11,11,0,0,0,170,68.93c0-.42-.08-.73-.1-1a2,2,0,0,1,0-.33.8.8,0,0,0-.43-.46,2.47,2.47,0,0,0-.69-.23,4.27,4.27,0,0,0-1-.1,5,5,0,0,0-.89.13,2.14,2.14,0,0,0-.66.23.7.7,0,0,0-.36.43s-.09.51-.2,1.47-.23,2.36-.35,4.2-.23,4.12-.33,6.84-.15,5.84-.15,9.37c0,.77,0,1.56,0,2.37s0,1.64,0,2.47q0,2.37.13,4.8t.25,4.43q.15,2,.31,3.4a9.4,9.4,0,0,0,.3,1.71,2.51,2.51,0,0,0,.56.38c.26.14.54.28.84.41a7.08,7.08,0,0,0,.89.33,2.65,2.65,0,0,0,.67.13h.07a2.52,2.52,0,0,0,.79-.13,3.31,3.31,0,0,0,.69-.31,4.56,4.56,0,0,0,.51-.36.73.73,0,0,0,.25-.31,8.29,8.29,0,0,0,.15-1.63q0-1.37,0-3.64V100.2q-.07-3.1-.18-7t-.28-7.78a11.87,11.87,0,0,0,2.45,1,9.89,9.89,0,0,0,2.67.36A11.66,11.66,0,0,0,180.3,86a10.93,10.93,0,0,0,3.45-2.13,10.14,10.14,0,0,0,2.33-3.16,9.09,9.09,0,0,0,0-7.71A10.17,10.17,0,0,0,183.75,69.88ZM180.21,79a5.84,5.84,0,0,1-1,1.73,4.81,4.81,0,0,1-1.43,1.19,3.71,3.71,0,0,1-1.78.44,6.1,6.1,0,0,1-2.44-.44,4.73,4.73,0,0,1-1.68-1.19,4.9,4.9,0,0,1-1-1.73,6.68,6.68,0,0,1-.33-2.11,6.82,6.82,0,0,1,.33-2.14,4.92,4.92,0,0,1,1-1.73,4.59,4.59,0,0,1,1.68-1.17,6.32,6.32,0,0,1,2.44-.43,3.83,3.83,0,0,1,1.78.43A4.63,4.63,0,0,1,179.24,73a5.87,5.87,0,0,1,1,1.73,6.2,6.2,0,0,1,.36,2.14A6.08,6.08,0,0,1,180.21,79Z" transform="translate(0 0)"/><path class="cls-1" d="M206.45,69.88A11.05,11.05,0,0,0,203,67.76a11.8,11.8,0,0,0-8.4,0,10.63,10.63,0,0,0-3.43,2.13A10.2,10.2,0,0,0,188.85,73a9.09,9.09,0,0,0,0,7.71,10.22,10.22,0,0,0,2.31,3.16A10.69,10.69,0,0,0,194.58,86a11.8,11.8,0,0,0,8.4,0,11.11,11.11,0,0,0,3.46-2.13,10.09,10.09,0,0,0,2.34-3.16,9.13,9.13,0,0,0,0-7.71A10.07,10.07,0,0,0,206.45,69.88ZM202.94,79a5.44,5.44,0,0,1-1,1.73,5,5,0,0,1-1.43,1.19,3.59,3.59,0,0,1-1.76.44,3.51,3.51,0,0,1-1.72-.44,4.88,4.88,0,0,1-1.42-1.19,5.63,5.63,0,0,1-1-1.73,6.44,6.44,0,0,1-.34-2.11,6.57,6.57,0,0,1,.34-2.14,5.66,5.66,0,0,1,1-1.73,4.68,4.68,0,0,1,1.42-1.17,3.63,3.63,0,0,1,1.72-.43,3.7,3.7,0,0,1,1.76.43A4.84,4.84,0,0,1,202,73a5.46,5.46,0,0,1,1,1.73,6.49,6.49,0,0,1,.34,2.14A6.36,6.36,0,0,1,202.94,79Z" transform="translate(0 0)"/><path class="cls-1" d="M229.19,69.88a11.05,11.05,0,0,0-3.46-2.13,11.81,11.81,0,0,0-8.41,0,10.7,10.7,0,0,0-3.43,2.13A10.29,10.29,0,0,0,211.59,73a9.1,9.1,0,0,0,0,7.71,10.31,10.31,0,0,0,2.31,3.16A10.75,10.75,0,0,0,217.32,86a11.81,11.81,0,0,0,8.41,0,11.11,11.11,0,0,0,3.46-2.13,10.08,10.08,0,0,0,2.34-3.16,9.1,9.1,0,0,0,0-7.71A10.06,10.06,0,0,0,229.19,69.88ZM225.68,79a5.44,5.44,0,0,1-1,1.73,5.06,5.06,0,0,1-1.43,1.19,3.57,3.57,0,0,1-1.75.44,3.5,3.5,0,0,1-1.72-.44,4.83,4.83,0,0,1-1.41-1.19,5.58,5.58,0,0,1-1-1.73,6.44,6.44,0,0,1-.34-2.11,6.57,6.57,0,0,1,.34-2.14,5.6,5.6,0,0,1,1-1.73,4.63,4.63,0,0,1,1.41-1.17,3.62,3.62,0,0,1,1.72-.43,3.68,3.68,0,0,1,1.75.43A4.85,4.85,0,0,1,224.71,73a5.46,5.46,0,0,1,1,1.73A6.49,6.49,0,0,1,226,76.9,6.36,6.36,0,0,1,225.68,79Z" transform="translate(0 0)"/><path class="cls-1" d="M303.11,69.88a11.06,11.06,0,0,0-3.45-2.13,11.56,11.56,0,0,0-4.22-.77,11.41,11.41,0,0,0-4.18.77,10.6,10.6,0,0,0-3.43,2.13A10.3,10.3,0,0,0,285.51,73a8.91,8.91,0,0,0-.86,3.85,9.1,9.1,0,0,0,.18,1.77c-.36.51-.71,1-1.07,1.45A11.09,11.09,0,0,1,282,81.9a2.6,2.6,0,0,1-1.55.67.87.87,0,0,1-.71-.35,2.77,2.77,0,0,1-.46-.94,6.94,6.94,0,0,1-.25-1.42Q279,79,279,78.12V75.68q0-2.64.1-5.57l.2-5.86q.09-2.93.18-5.7t.09-5.08q0-3.75-.11-6a21.3,21.3,0,0,0-.21-2.62,1.17,1.17,0,0,0-.3-.33,3.29,3.29,0,0,0-.56-.38,4.43,4.43,0,0,0-.72-.31,2.46,2.46,0,0,0-.79-.13,2.24,2.24,0,0,0-.67.15,7.82,7.82,0,0,0-.88.36c-.3.15-.57.29-.82.45A2.07,2.07,0,0,0,274,45a6.69,6.69,0,0,0-.3,1.73q-.13,1.4-.24,3.41c-.07,1.34-.14,2.81-.18,4.42s-.07,3.19-.07,4.75q0,4.64.08,8.5t.24,7c0,.09,0,.44.05,1.07s.1,1.39.21,2.27c.06.48.14,1,.23,1.49l-.1.11a8.49,8.49,0,0,1-2.11,1.51,5.45,5.45,0,0,1-2.47.56,3,3,0,0,1-1.58-.39,3.85,3.85,0,0,1-1.12-1,5.38,5.38,0,0,1-.74-1.42,12.57,12.57,0,0,1-.45-1.55,10.23,10.23,0,0,1-.21-1.44c0-.45-.06-.82-.08-1.1V73.11q0-2.24.17-5.06t.41-5.77q.25-2.95.53-5.81t.53-5.14c.16-1.52.3-2.77.41-3.76s.16-1.56.16-1.71a1.58,1.58,0,0,0-.31-1,2.82,2.82,0,0,0-.78-.69,3.89,3.89,0,0,0-1-.43,4.39,4.39,0,0,0-1.1-.15H264a6.49,6.49,0,0,0-2.06.44,1.48,1.48,0,0,0-1,1.24q-.1,1.28-.36,4.25T260,56.78q-.26,4.27-.46,9.63t-.2,11.45c0,.66,0,1.3,0,1.94l-.24.32a11.35,11.35,0,0,1-1.75,1.78,2.64,2.64,0,0,1-1.58.67,1.13,1.13,0,0,1-1.07-.67,5.57,5.57,0,0,1-.49-1.76,18.67,18.67,0,0,1-.15-2.49c0-.93,0-1.89-.05-2.87s-.1-1.93-.21-2.87a9.4,9.4,0,0,0-.61-2.49,4.27,4.27,0,0,0-1.28-1.76,3.39,3.39,0,0,0-2.19-.67,5.92,5.92,0,0,0-3.26,1,12.69,12.69,0,0,0-2.8,2.47,21.29,21.29,0,0,0-2.31,3.28,38.16,38.16,0,0,0-1.75,3.39q.1-1.51.18-3t.08-2.69c0-.24,0-.57,0-1s0-.84-.08-1.27-.07-.81-.1-1.14a1.81,1.81,0,0,0-.11-.59,4.51,4.51,0,0,0-.79-.28A5.3,5.3,0,0,0,237.3,67h-.13c-.16,0-.38,0-.68,0a9.09,9.09,0,0,0-.9.15l-.84.2a2.18,2.18,0,0,0-.54.2,2.82,2.82,0,0,0-.27,1q-.13.82-.23,1.86t-.16,2.08c0,.69-.07,1.24-.07,1.63q0,2.8.18,5.08t.41,3.89q.23,1.61.43,2.49a6.75,6.75,0,0,0,.23.9.68.68,0,0,0,.41.2,5.46,5.46,0,0,0,.67.1c.26,0,.56,0,.89,0s.64,0,.92,0a5.94,5.94,0,0,0,.69-.1c.22,0,.35-.11.4-.2l.06-.07c.07-.18.23-.62.5-1.35s.61-1.58,1-2.57.89-2,1.42-3.15a32.8,32.8,0,0,1,1.65-3.06A13.32,13.32,0,0,1,245.11,74a2.48,2.48,0,0,1,1.71-.92c.57,0,.94.34,1.1,1a13.72,13.72,0,0,1,.31,2.55c0,1,.09,2.13.15,3.31a10.79,10.79,0,0,0,.66,3.31,5.91,5.91,0,0,0,1.83,2.56,5.6,5.6,0,0,0,3.62,1,6,6,0,0,0,2.37-.46,8.53,8.53,0,0,0,2-1.21c.19-.16.37-.33.55-.49q.08,3,.24,5.49a86.06,86.06,0,0,0,.94,8.75,27.86,27.86,0,0,0,1.52,5.78,10.79,10.79,0,0,0,2.06,3.41,5.78,5.78,0,0,0,2.57,1.62,10.79,10.79,0,0,0,3,.41,4,4,0,0,0,2.09-.64,6.13,6.13,0,0,0,1.86-1.91,11.11,11.11,0,0,0,1.33-3.1,15.54,15.54,0,0,0,.51-4.2,18,18,0,0,0-.43-3.94A22.06,22.06,0,0,0,274,92.62a24.54,24.54,0,0,0-1.71-3.38q-1-1.6-2-3a8.54,8.54,0,0,0,2.93-1.37A15.31,15.31,0,0,0,275,83.27c.07.18.14.37.22.54A6.79,6.79,0,0,0,276.85,86a3.36,3.36,0,0,0,2.34.86,5.91,5.91,0,0,0,2.34-.46,8.42,8.42,0,0,0,2-1.21,11.33,11.33,0,0,0,1.68-1.66c.39-.47.73-.95,1.05-1.42a10.06,10.06,0,0,0,1.55,1.85A10.66,10.66,0,0,0,291.25,86a11.41,11.41,0,0,0,4.18.77,11.56,11.56,0,0,0,4.22-.77,11.12,11.12,0,0,0,3.45-2.13,10,10,0,0,0,2.34-3.16,9.1,9.1,0,0,0,0-7.71A10,10,0,0,0,303.11,69.88ZM271.16,95.41a18.71,18.71,0,0,1,.64,5c0,.66,0,1.27-.07,1.83a5.35,5.35,0,0,1-.3,1.45,2.22,2.22,0,0,1-.66,1,1.73,1.73,0,0,1-1.12.34q-2.11,0-3.1-4.94a95.68,95.68,0,0,1-1.29-14.77,28.44,28.44,0,0,1,2.13,2.51,23.32,23.32,0,0,1,2.13,3.39A21.79,21.79,0,0,1,271.16,95.41ZM299.6,79a5.42,5.42,0,0,1-1,1.73,5.1,5.1,0,0,1-1.43,1.19,3.59,3.59,0,0,1-1.76.44,3.52,3.52,0,0,1-1.73-.44,4.85,4.85,0,0,1-1.41-1.19,5.7,5.7,0,0,1-1-1.73A6.36,6.36,0,0,1,291,76.9a6.49,6.49,0,0,1,.34-2.14,5.73,5.73,0,0,1,1-1.73,4.66,4.66,0,0,1,1.41-1.17,3.64,3.64,0,0,1,1.73-.43,3.7,3.7,0,0,1,1.76.43A4.88,4.88,0,0,1,298.64,73a5.45,5.45,0,0,1,1,1.73,6.49,6.49,0,0,1,.35,2.14A6.36,6.36,0,0,1,299.6,79Z" transform="translate(0 0)"/><path class="cls-1" d="M341.21,67h-.69a4.46,4.46,0,0,0-1.27.18.94.94,0,0,0-.68.91c0,.82-.14,1.74-.3,2.79s-.35,2.1-.58,3.18-.49,2.13-.79,3.16a22.81,22.81,0,0,1-1,2.75,8.86,8.86,0,0,1-1.12,1.95,1.64,1.64,0,0,1-1.25.74,1.7,1.7,0,0,1-1.33-.82,8.06,8.06,0,0,1-1.07-2.16,26.17,26.17,0,0,1-.82-3q-.36-1.63-.63-3.26c-.17-1.09-.33-2.1-.45-3s-.21-1.71-.28-2.31a1,1,0,0,0-.71-.82,8,8,0,0,0-2.52-.26H324.4a4.38,4.38,0,0,0-1.24.18.94.94,0,0,0-.67.91c0,.82-.14,1.74-.3,2.79s-.35,2.1-.58,3.18-.49,2.13-.78,3.16a20.56,20.56,0,0,1-1,2.75,8.74,8.74,0,0,1-1.12,1.95,1.64,1.64,0,0,1-1.25.74,1.69,1.69,0,0,1-1.33-.82,8.15,8.15,0,0,1-1.07-2.16,26.81,26.81,0,0,1-.82-3c-.24-1.09-.45-2.17-.63-3.26s-.32-2.1-.43-3-.21-1.71-.3-2.31a1,1,0,0,0-.74-.82,8,8,0,0,0-2.52-.26,11.11,11.11,0,0,0-2.13.18q-.9.18-1,.84v.2q0,.73.16,2.41a37.66,37.66,0,0,0,.58,3.74,40.33,40.33,0,0,0,1.1,4.27,19.24,19.24,0,0,0,1.76,4,10.38,10.38,0,0,0,2.57,3,5.5,5.5,0,0,0,3.48,1.17A5.42,5.42,0,0,0,319,86.1a8.48,8.48,0,0,0,2.26-1.93A13.64,13.64,0,0,0,323,81.42a26.42,26.42,0,0,0,1.32-3.23,25.21,25.21,0,0,0,1.25,3.23,13.06,13.06,0,0,0,1.7,2.75,8.15,8.15,0,0,0,2.21,1.93,5.41,5.41,0,0,0,2.79.73,5.53,5.53,0,0,0,3.58-1.24,11.47,11.47,0,0,0,2.65-3.15,21.27,21.27,0,0,0,1.86-4.2q.74-2.29,1.2-4.38t.68-3.69q.21-1.6.24-2.16v-.07Q342.49,67,341.21,67Z" transform="translate(0 0)"/><path class="cls-1" d="M385.75,75c-.16-.5-.37-.76-.61-.76s-.39.18-.56.53c-.53,1-1.08,1.95-1.67,2.88a25.52,25.52,0,0,1-1.76,2.51,11.58,11.58,0,0,1-1.73,1.78,2.59,2.59,0,0,1-1.59.67.55.55,0,0,1-.51-.26,1.3,1.3,0,0,1-.15-.63,6,6,0,0,1,.48-1.88q.48-1.25,1.07-2.65t1.07-2.72a6.57,6.57,0,0,0,.48-2.11q0-3.33-4.12-3.33c-.42,0-.94,0-1.56,0s-1.26-.08-1.9-.15a15.46,15.46,0,0,1-1.78-.28,3.65,3.65,0,0,1-1.22-.44,6.24,6.24,0,0,0-.78-3.26,2.62,2.62,0,0,0-2.42-1.28,1.77,1.77,0,0,0-1.1.36,3.33,3.33,0,0,0-.81.89,4.48,4.48,0,0,0-.5,1.12,4.06,4.06,0,0,0-.16,1.09,5.78,5.78,0,0,0,.31,2,5.89,5.89,0,0,0,.71,1.37,3.67,3.67,0,0,0,.78.82,5.53,5.53,0,0,1,.51.41,18.82,18.82,0,0,1-1.06,2.67c-.42.86-.81,1.62-1.19,2.29l-.39.68c-.13.19-.26.4-.39.59A12.5,12.5,0,0,1,361,80.28a9,9,0,0,1-2.76,1.55,10.52,10.52,0,0,1-3.54.55,6.15,6.15,0,0,1-3.34-.92,4.43,4.43,0,0,1-1.93-2.87,14.89,14.89,0,0,0,2.13.56,11.69,11.69,0,0,0,2.13.2,11.21,11.21,0,0,0,3-.4,7.74,7.74,0,0,0,2.52-1.19,6,6,0,0,0,1.73-1.94,5.31,5.31,0,0,0,.64-2.64,5.21,5.21,0,0,0-.63-2.56,6.06,6.06,0,0,0-1.7-1.94,8.2,8.2,0,0,0-2.5-1.25,10.51,10.51,0,0,0-3.08-.44,11.45,11.45,0,0,0-4.19.77,10.7,10.7,0,0,0-3.43,2.13A10.29,10.29,0,0,0,343.75,73a8.92,8.92,0,0,0-.86,3.85,9.71,9.71,0,0,0,2.64,6.43,11,11,0,0,0,3.64,2.49,13.51,13.51,0,0,0,5.52,1,9.82,9.82,0,0,0,4.3-.91,13.53,13.53,0,0,0,3.31-2.19,15,15,0,0,0,2.36-2.67,23.85,23.85,0,0,0,1.43-2.34,1.85,1.85,0,0,0,.2-.41l.11-.2c.36-.67.69-1.33,1-2s.56-1.28.79-1.85a12.52,12.52,0,0,0,.48-1.35,4,4,0,0,0,.71.23c.34.09.73.17,1.17.25l1.36.21c.46.07.89.11,1.28.13a1.05,1.05,0,0,1,.53.13.44.44,0,0,1,.23.4,1.24,1.24,0,0,1-.16.46q-.3.69-.69,1.6c-.26.6-.52,1.23-.77,1.88a18,18,0,0,0-.63,1.91,6.73,6.73,0,0,0-.24,1.7,5.55,5.55,0,0,0,.33,1.9,4.78,4.78,0,0,0,1,1.6,4.64,4.64,0,0,0,1.63,1.1,5.86,5.86,0,0,0,2.27.41,5.93,5.93,0,0,0,2.34-.46,8.61,8.61,0,0,0,2-1.21,10.68,10.68,0,0,0,1.66-1.66A20.5,20.5,0,0,0,384,81.66c.39-.6.71-1.17,1-1.69l.64-1.25a3.37,3.37,0,0,0,.29-1,5.93,5.93,0,0,0,.1-1.12A5.41,5.41,0,0,0,385.75,75Zm-36-.61a5.43,5.43,0,0,1,1-1.52,4.89,4.89,0,0,1,1.37-1,3.5,3.5,0,0,1,1.58-.38,5.25,5.25,0,0,1,1.09.11,2.4,2.4,0,0,1,.92.41,2.26,2.26,0,0,1,.64.76,2.4,2.4,0,0,1,.25,1.15,1.71,1.71,0,0,1-.5,1.24,3.6,3.6,0,0,1-1.25.83,7.15,7.15,0,0,1-1.66.45,12.49,12.49,0,0,1-1.77.13,10.72,10.72,0,0,1-1.23-.07,3.16,3.16,0,0,1-.94-.23A6,6,0,0,1,349.71,74.35Z" transform="translate(0 0)"/><path class="cls-2" d="M116.26,25.1c-4.73-3.52-10.58-.32-14.62-.72-.24-2.92-1-5.62-3.53-7.54-5.81-4.44-14.37-.63-19.6,2.72-7.16,4.58-12.37,13-16.43,20.38,2.42-11,6.12-28.06-1.07-36.75C56.49-2.3,50.76.1,47.62,4.39c-6.74,9.22-2.78,20-1.13,27-9-3.35-19.39-8.22-27.2-6.92-1.69.28-3.78,1.34-4.45,2.54C11.35,33.21,24.91,38.9,29.5,40.17c-5.76,0-8.54,7.87-4.14,11.53-3.52,1.13-6.53,2.27-10.51,3.83C11.26,56.92-.76,61,9.14,65.21c3.42,1.45,8.24.07,10.71.85-4.43,3.34-6.36,10-3,13.1a9.29,9.29,0,0,0,5.91,2.39l0,.08.09-.08c4.75.26,10-2.23,13.42-3.73-1.58,4.07-7.06,13.48-3.45,15.88,1.76,1.16,5.06-.83,7.43-2.6C45.09,87.46,48.65,80.73,52,75.58a35.73,35.73,0,0,0,.43,11.79c.66,3.52,3.18,10.44,8.08,10.83,10.17.82,9.22-16.87,6.68-21.86.22.13.15.34.31.48,1.78,4.54,12.56,16.35,18,12.45,3.81-2.71-.21-10.21-1.61-12.79-2.39-4.36-5-7.62-7.11-11.47,8.56,4,19.4,5.79,23.81-2.36,3.64-6.72-5.27-14.17-13.42-15.79A46,46,0,0,0,94.81,41c4-1,7.85-1.58,12.18-3.15S123.6,30.55,116.26,25.1Z" transform="translate(0 0)"/><path class="cls-1" d="M4,69.27c3.59,1.53,8.61.17,11.2,1-4.59,3.39-6.52,10.26-3,13.47,5.91,5.34,15,1.05,20.22-1.13-1.6,4.17-7.2,13.8-3.4,16.31,1.85,1.22,5.27-.79,7.73-2.59,5-3.68,8.68-10.57,12.12-15.83a36.45,36.45,0,0,0,.6,12.15c.73,3.63,3.46,10.79,8.58,11.26,10.63,1,9.41-17.26,6.7-22.44.23.13.16.35.33.5,1.91,4.7,13.33,17,19,13.06,3.94-2.75-.34-10.53-1.85-13.2-2.55-4.52-5.31-7.91-7.57-11.91,9,4.22,20.34,6.21,24.84-2.13,3.72-6.88-5.69-14.67-14.21-16.44a46.32,46.32,0,0,0,7.84-5.94c4.13-1,8.17-1.52,12.68-3.08s17.25-7.3,9.53-13c-5-3.69-11.05-.47-15.28-.93-.29-3-1.13-5.8-3.78-7.81-6.13-4.65-15-.83-20.44,2.55C68.49,27.76,63.16,36.36,59,43.91,61.4,32.59,65,15.09,57.42,6c-4.8-5.71-10.75-3.31-14,1.08-6.92,9.41-2.64,20.54-.83,27.75-9.39-3.57-20.35-8.72-28.5-7.47-1.77.27-3.92,1.33-4.61,2.56C5.94,36.33,20.17,42.36,25,43.73c-6-.07-8.81,8-4.17,11.82C17.14,56.67,14,57.8,9.88,59.36,6.15,60.75-6.35,64.81,4,69.27Zm20.67,15c-3.56.84-10.83,1.23-12.36-3.25-1.18-3.44,2.32-9.4,6.05-11.33,1.46-.76,4.31-.73,6.69-1.34a142.26,142.26,0,0,0,19.76-6.67c-4,5-5.91,12.65-10.59,18C32.37,81.76,27.45,83.58,24.71,84.23ZM49.63,51.42a22.39,22.39,0,0,1,3.55,2.4,26.5,26.5,0,0,0-4.1,3.79c-7.44,2.21-15.24,3-24.27-.95-.77-.66,1.61-1,2.33-.8C34.31,53.12,42.08,52.71,49.63,51.42ZM46,48.06c1.65,0,3.94-.9,5,1.06C49.81,50.61,47.72,48.56,46,48.06Zm6.62,1.41c-.4-.42-.32-1-1.11-1.28,1.42-.57,3.16.13,4.58-.4C56.59,49.18,53.57,48.64,52.64,49.47Zm2.55,3.05c-1-.39-.57-1.16-1.57-1.55.59-.22,1.3,0,1.83-.47C56.15,51,55.53,51.78,55.18,52.52Zm-3.92,8.24c.26.1.42.31.33.5-3.16,6.4-9,12.5-13.72,16.44a101.21,101.21,0,0,1,10.5-16.78A11.43,11.43,0,0,0,51.26,60.76ZM23.74,66.9c4.79-3.13,11.7-4.6,17.56-6.1C36.45,63.66,29.48,64.91,23.74,66.9Zm6.39,30.78c-.51-4,1.51-12,5.6-16.88,1.88-2.25,5.53-4,8.25-6.62a38.06,38.06,0,0,0,7.35-9.33C50.41,76.27,41.06,94.91,30.14,97.67Zm49.49-17.1c1.9,3,6.39,9.92,3.31,12.82-1.79,1.69-5.75-.14-8.83-2.41-9.59-7.05-13.68-20.49-14.56-30.61.19-.24.3,0,.23.14,3,3,7.6,4.27,11.81,7.88C74.64,71,77.21,76.75,79.63,80.58ZM70.11,65.66c-3.3-1.48-7.55-4.41-9.69-7.26C65.33,55.55,67,62.89,70.11,65.66ZM62.66,52c5.13-2.06,11.23-.38,16.92-.28.44.15.33.44.19.73C75,53.86,70.31,55.61,65.26,56,63.63,54.83,63.85,53.21,62.66,52Zm29.93,19.8c-3.48,1.25-14.34,0-19.16-3.84-3.21-2.58-4-7.17-7.33-10.22,5.71-1.57,11.61-2.45,17-5.18C94.11,52.39,105.71,67,92.58,71.76ZM61.73,49.66c8.53-1.27,19.54-1.76,27.85-3.88-1.4,2.4-4.75,3.81-7.07,5.15a65.27,65.27,0,0,0-20.65-1.3m38.24-19.07c1.9-1.33,17.63-2.93,15.94,3.5-1,3.66-7.31,5.75-10.17,6.73-4.11,1.41-7.36,1.9-11,2.84C97.3,39.83,100.26,34.32,100.09,30.55ZM92.22,43.92c-1.08.81-5,1.14-7.05,1.43-6.75,1-15.29,1.07-21.32,1.41,10.09-7.58,22.45-12.89,34.32-16.1C97.25,35.12,96,41.06,92.22,43.92Zm-5-23.72c5.62-1,11.08,2.45,11.17,8.44-9.65,3-19.1,6.6-28.29,12.2-2.79,1.7-5.87,3.78-9.28,4.16C65.76,32.6,77.55,22,87.26,20.2ZM60.73,52.06c1.07,1.22,1.17,2.7,2.37,3.88-1.15.83-2.67.24-3.89.81-.55-1-.2-2.29-.49-3.39C59.24,52.36,60.08,52.59,60.73,52.06Zm-3.91,9.81C58,66.58,60.19,72.71,62.23,79,64,84.5,66.45,91.27,64.76,96.34c-2.52,7.55-9.27,7.72-12.33,1.43-2.21-4.55-3.55-15.64-1.91-21C52,71.82,56.79,66.53,56.82,61.87Zm-2.37,2.59c-.87,1.4-.92,2.56-1.79,4,0-2.22,1.57-6.26,2.11-8.61C55.73,59.11,54.12,63.7,54.44,64.46ZM50.59,46.09c-1.89-2.51-3.14-5.18-4.74-7.76A42.38,42.38,0,0,1,57.14,45C55.44,47.22,52.78,45.73,50.59,46.09ZM44,9.31c2.26-3.8,7-7.69,11.26-3.3,8,8.28,4,26,2.13,37a61.12,61.12,0,0,0-12.35-7C42.09,28.73,38.44,18.66,44,9.31ZM10.61,31.23c3.24-3.36,9.28-1.92,14.9-.53a154,154,0,0,1,17.34,5.87c3.2,1.21,3.72,8,6.18,9.54-4.08.68-9.26-.51-14.51-1.72C27.75,42.83,12.13,39.61,10.61,31.23ZM29.21,45c1.69.24,3.69,1.39,5.75,1.83,3.28.72,7.53,1.07,11.31,2.94-7.26,1.64-16.37,2.67-24,5.42C16.58,49.84,22.86,44.07,29.21,45ZM22.88,56.77c.71.07,2.08,1.13,3.13,1.53a29,29,0,0,0,9.33,2.08c-5.07,2-12,3.54-17.18,7.57-5.1-.1-12.11,2-16.39-2.21C6,62,11.89,60.47,17.48,58.56,18.83,58.1,21.86,56.66,22.88,56.77Z" transform="translate(0 0)"/></svg>