<svg xmlns="http://www.w3.org/2000/svg" viewBox="0 0 118.56 103.95"><defs><style>.cls-1{fill:#9cc5ca;}.cls-2{fill:#4a3b15;}</style></defs><title>Asset 1</title><g id="Layer_2" data-name="Layer 2"><g id="Layer_1-2" data-name="Layer 1"><path class="cls-1" d="M116.27,25.1c-4.73-3.52-10.58-.32-14.62-.72-.24-2.92-1-5.62-3.53-7.54-5.81-4.44-14.37-.63-19.6,2.72-7.16,4.58-12.37,13-16.43,20.38,2.42-11,6.12-28.06-1.07-36.75C56.5-2.3,50.77.1,47.63,4.39c-6.74,9.22-2.78,20-1.13,27-9-3.35-19.39-8.22-27.2-6.92-1.69.28-3.78,1.34-4.45,2.54-3.49,6.2,10.07,11.89,14.66,13.16C23.75,40.17,21,48,25.37,51.7c-3.52,1.13-6.53,2.27-10.51,3.83C11.27,56.92-.75,61,9.15,65.21c3.42,1.45,8.24.07,10.71.85-4.43,3.34-6.36,10-3,13.1a9.29,9.29,0,0,0,5.91,2.39v.08l.09-.08c4.75.26,10-2.23,13.42-3.73C34.7,81.89,29.22,91.3,32.83,93.7c1.76,1.16,5.06-.83,7.43-2.6C45.1,87.46,48.66,80.73,52,75.58a35.73,35.73,0,0,0,.43,11.79c.66,3.52,3.18,10.44,8.08,10.83,10.17.82,9.22-16.87,6.68-21.86.22.13.15.34.31.48,1.78,4.54,12.56,16.35,18,12.45,3.81-2.71-.21-10.21-1.61-12.79-2.39-4.36-5-7.62-7.11-11.47,8.56,4,19.4,5.79,23.81-2.36,3.64-6.72-5.27-14.17-13.42-15.79A46,46,0,0,0,94.82,41c4-1,7.85-1.58,12.18-3.15S123.61,30.55,116.27,25.1Z"/><path class="cls-2" d="M4,69.27c3.59,1.53,8.61.17,11.2,1-4.59,3.39-6.52,10.26-3,13.47,5.91,5.34,15,1.05,20.22-1.13-1.6,4.17-7.2,13.8-3.4,16.31,1.85,1.22,5.27-.79,7.73-2.59,5-3.68,8.68-10.57,12.12-15.83a36.45,36.45,0,0,0,.6,12.15c.73,3.63,3.46,10.79,8.58,11.26,10.63,1,9.41-17.26,6.7-22.44.23.13.16.35.33.5C67,86.67,78.42,99,84.09,95c3.94-2.75-.34-10.53-1.85-13.2-2.55-4.52-5.31-7.91-7.57-11.91,9,4.22,20.34,6.21,24.84-2.13,3.72-6.88-5.69-14.67-14.21-16.44a46.32,46.32,0,0,0,7.84-5.94c4.13-1,8.17-1.52,12.68-3.08s17.25-7.3,9.53-13c-5-3.69-11.05-.47-15.28-.93-.29-3-1.13-5.8-3.78-7.81-6.13-4.65-15-.83-20.44,2.55C68.5,27.76,63.17,36.36,59,43.91,61.41,32.59,65,15.09,57.43,6c-4.8-5.71-10.75-3.31-14,1.08-6.92,9.41-2.64,20.54-.83,27.75-9.39-3.57-20.35-8.72-28.5-7.47-1.77.27-3.92,1.33-4.61,2.56C6,36.33,20.18,42.36,25,43.73c-6-.07-8.81,8-4.17,11.82C17.15,56.67,14,57.8,9.89,59.36,6.16,60.75-6.34,64.81,4,69.27Zm20.67,15c-3.56.84-10.83,1.23-12.36-3.25-1.18-3.44,2.32-9.4,6.05-11.33,1.46-.76,4.31-.73,6.69-1.34a142.26,142.26,0,0,0,19.76-6.67c-4,5-5.91,12.65-10.59,18-1.85,2.08-6.77,3.9-9.51,4.55Zm25-32.85a22.39,22.39,0,0,1,3.55,2.4,26.5,26.5,0,0,0-4.1,3.79c-7.44,2.21-15.24,3-24.27-1-.77-.66,1.61-1,2.33-.8C34.32,53.12,42.09,52.71,49.64,51.42ZM46,48.06c1.65,0,3.94-.9,5,1.06C49.82,50.61,47.73,48.56,46,48.06Zm6.62,1.41c-.4-.42-.32-1-1.11-1.28,1.42-.57,3.16.13,4.58-.4.5,1.39-2.52.85-3.45,1.68Zm2.55,3c-1-.39-.57-1.16-1.57-1.55.59-.22,1.3,0,1.83-.47.72.5.1,1.28-.25,2Zm-3.92,8.24c.26.1.42.31.33.5-3.16,6.4-9,12.5-13.72,16.44a101.21,101.21,0,0,1,10.5-16.78,11.43,11.43,0,0,0,2.9-.16ZM23.75,66.9c4.79-3.13,11.7-4.6,17.56-6.1C36.46,63.66,29.49,64.91,23.75,66.9Zm6.39,30.78c-.51-4,1.51-12,5.6-16.88,1.88-2.25,5.53-4,8.25-6.62a38.06,38.06,0,0,0,7.35-9.33c-.92,11.42-10.27,30.06-21.19,32.82Zm49.49-17.1c1.9,3,6.39,9.92,3.31,12.82-1.79,1.69-5.75-.14-8.83-2.41C64.52,83.94,60.43,70.5,59.55,60.38c.19-.24.3,0,.23.14,3,3,7.6,4.27,11.81,7.88,3.06,2.6,5.63,8.35,8.05,12.18ZM70.12,65.66c-3.3-1.48-7.55-4.41-9.69-7.26C65.34,55.55,67,62.89,70.12,65.66ZM62.67,52c5.13-2.06,11.23-.38,16.92-.28.44.15.33.44.19.73C75,53.86,70.32,55.61,65.27,56,63.64,54.83,63.86,53.21,62.67,52ZM92.6,71.8C89.12,73,78.26,71.8,73.44,68c-3.21-2.58-4-7.17-7.33-10.22,5.71-1.57,11.61-2.45,17-5.18,11-.17,22.61,14.44,9.48,19.2ZM61.74,49.66c8.53-1.27,19.54-1.76,27.85-3.88-1.4,2.4-4.75,3.81-7.07,5.15a65.27,65.27,0,0,0-20.65-1.3m38.24-19.07c1.9-1.33,17.63-2.93,15.94,3.5-1,3.66-7.31,5.75-10.17,6.73-4.11,1.41-7.36,1.9-11,2.84,2.43-3.8,5.39-9.31,5.22-13.08ZM92.23,43.92c-1.08.81-5,1.14-7.05,1.43-6.75,1-15.29,1.07-21.32,1.41C74,39.18,86.31,33.87,98.18,30.66,97.26,35.12,96,41.06,92.23,43.92Zm-5-23.72c5.62-1,11.08,2.45,11.17,8.44-9.65,3-19.1,6.6-28.29,12.2-2.79,1.7-5.87,3.78-9.28,4.16,4.94-12.4,16.73-23,26.44-24.8ZM60.74,52.06c1.07,1.22,1.17,2.7,2.37,3.88-1.15.83-2.67.24-3.89.81-.55-1-.2-2.29-.49-3.39C59.25,52.36,60.09,52.59,60.74,52.06Zm-3.91,9.81C58,66.58,60.2,72.71,62.24,79c1.77,5.5,4.22,12.27,2.53,17.34-2.52,7.55-9.27,7.72-12.33,1.43-2.21-4.55-3.55-15.64-1.91-21C52,71.82,56.8,66.53,56.83,61.87Zm-2.37,2.59c-.87,1.4-.92,2.56-1.79,4,0-2.22,1.57-6.26,2.11-8.61,1-.74-.65,3.85-.33,4.61ZM50.6,46.09c-1.89-2.51-3.14-5.18-4.74-7.76A42.38,42.38,0,0,1,57.15,45C55.45,47.22,52.79,45.73,50.6,46.09ZM44,9.31c2.26-3.8,7-7.69,11.26-3.3,8,8.28,4,26,2.13,37a61.12,61.12,0,0,0-12.35-7C42.1,28.73,38.45,18.66,44,9.31ZM10.62,31.23c3.24-3.36,9.28-1.92,14.9-.53a154,154,0,0,1,17.34,5.87c3.2,1.21,3.72,8,6.18,9.54-4.08.68-9.26-.51-14.51-1.72C27.76,42.83,12.14,39.61,10.62,31.23ZM29.22,45c1.69.24,3.69,1.39,5.75,1.83,3.28.72,7.53,1.07,11.31,2.94-7.26,1.64-16.37,2.67-24,5.42C16.59,49.84,22.87,44.07,29.22,45ZM22.89,56.77C23.6,56.84,25,57.9,26,58.3a29,29,0,0,0,9.33,2.08c-5.07,2-12,3.54-17.18,7.57-5.1-.1-12.11,2-16.39-2.21C6,62,11.9,60.47,17.49,58.56,18.84,58.1,21.87,56.66,22.89,56.77Z"/></g></g></svg>