<svg xmlns="http://www.w3.org/2000/svg" viewBox="0 0 152.65 37.92"><defs><style>.cls-1{fill:#4a3b15;}.cls-2{fill:#97c4c6;fill-rule:evenodd;}</style></defs><title>Asset 3</title><g id="Layer_2" data-name="Layer 2"><g id="Layer_1-2" data-name="Layer 1"><path class="cls-1" d="M64.31,13.43a5.75,5.75,0,0,1-.61.39L63,14.2a.47.47,0,0,0-.23.29,1.67,1.67,0,0,0-.05.44c0,.17,0,.28.14.32a.64.64,0,0,0,.23.06h0A4.32,4.32,0,0,0,64.57,15,6.13,6.13,0,0,0,66,14.23a4.68,4.68,0,0,0,1.05-1A2,2,0,0,0,67.43,12a2.63,2.63,0,0,0-.26-1.23,2.41,2.41,0,0,0-.71-.83,3.57,3.57,0,0,0-1-.51,7.17,7.17,0,0,0-1.16-.28A10.21,10.21,0,0,0,63.1,9L62,9c-.58,0-1.28,0-2.08.1s-1.66.16-2.59.3-1.87.3-2.86.51-1.94.46-2.88.75a23.1,23.1,0,0,0-2.66,1,11.81,11.81,0,0,0-2.2,1.26,6,6,0,0,0-1.5,1.53,3.24,3.24,0,0,0-.55,1.83,1.86,1.86,0,0,0,.48,1.25,4.54,4.54,0,0,0,1.29,1,10.63,10.63,0,0,0,1.91.77q1.09.33,2.32.6t2.52.51l2.52.48q1.23.24,2.32.5a15.65,15.65,0,0,1,1.91.57,4.6,4.6,0,0,1,1.29.7,1.15,1.15,0,0,1,.48.91,1.72,1.72,0,0,1-.55,1.33,3.78,3.78,0,0,1-1.54.79,11.67,11.67,0,0,1-2.33.39q-1.34.1-2.93.1A11.49,11.49,0,0,1,53,26q-.74-.09-1.48-.23t-1.43-.3l-1.23-.3L48,25a2.73,2.73,0,0,0-.41-.09.24.24,0,0,0-.24.15.89.89,0,0,0-.06.35,1.76,1.76,0,0,0,.06.48.67.67,0,0,0,.17.32,2.17,2.17,0,0,0,.59.32,10.74,10.74,0,0,0,1,.37q.62.19,1.36.36c.5.12,1,.22,1.55.31s1.07.16,1.62.22a14.93,14.93,0,0,0,1.53.08,30,30,0,0,0,3.6-.19,18.43,18.43,0,0,0,2.75-.53,9.56,9.56,0,0,0,2-.78,5.53,5.53,0,0,0,1.31-1,3.28,3.28,0,0,0,.72-1.07,3,3,0,0,0,.22-1.09,2.07,2.07,0,0,0-.48-1.35A4.55,4.55,0,0,0,64,20.82,10.94,10.94,0,0,0,62.06,20q-1.1-.37-2.35-.66t-2.55-.55l-2.55-.51q-1.25-.25-2.35-.52a14.84,14.84,0,0,1-1.93-.6A4.74,4.74,0,0,1,49,16.41a1.18,1.18,0,0,1-.48-.92A1.8,1.8,0,0,1,49,14.3a4.49,4.49,0,0,1,1.19-1,9.48,9.48,0,0,1,1.7-.76q1-.33,2-.57T56,11.59q1-.17,1.9-.26l1.52-.14.9,0q1.2,0,2.08.05a7.84,7.84,0,0,1,1.45.2,2.13,2.13,0,0,1,.86.39.79.79,0,0,1,.28.63.92.92,0,0,1-.18.57A2.16,2.16,0,0,1,64.31,13.43Z"/><path class="cls-1" d="M73.72,20.34a4.25,4.25,0,0,0-1.35-.83,4.54,4.54,0,0,0-1.66-.3,4,4,0,0,0-1.26.2,4.31,4.31,0,0,0-1.11.56l0-.37a.8.8,0,0,1,0-.13.31.31,0,0,0-.17-.18,1,1,0,0,0-.27-.09,1.67,1.67,0,0,0-.37,0,1.93,1.93,0,0,0-.35.05.84.84,0,0,0-.26.09.27.27,0,0,0-.14.17s0,.2-.08.57-.09.92-.14,1.64-.09,1.61-.13,2.67-.06,2.28-.06,3.66c0,.3,0,.61,0,.93s0,.64,0,1q0,.93.05,1.87t.1,1.73c0,.52.08,1,.12,1.32a3.67,3.67,0,0,0,.12.67,1,1,0,0,0,.22.15l.33.16.35.13a1,1,0,0,0,.26.05h0a1,1,0,0,0,.31-.05,1.28,1.28,0,0,0,.27-.12l.2-.14a.28.28,0,0,0,.1-.12,3.22,3.22,0,0,0,.06-.64q0-.53,0-1.42V32.17q0-1.21-.07-2.71t-.11-3a4.65,4.65,0,0,0,1,.39,3.87,3.87,0,0,0,1,.14,4.55,4.55,0,0,0,1.66-.3,4.27,4.27,0,0,0,1.35-.83,4,4,0,0,0,.91-1.23,3.55,3.55,0,0,0,0-3A4,4,0,0,0,73.72,20.34ZM72.34,23.9a2.27,2.27,0,0,1-.38.67,1.88,1.88,0,0,1-.56.46,1.45,1.45,0,0,1-.69.17,2.38,2.38,0,0,1-1-.17,1.84,1.84,0,0,1-.66-.46,1.91,1.91,0,0,1-.39-.67,2.61,2.61,0,0,1-.13-.82,2.66,2.66,0,0,1,.13-.84,1.92,1.92,0,0,1,.39-.67,1.79,1.79,0,0,1,.66-.46,2.47,2.47,0,0,1,1-.17,1.5,1.5,0,0,1,.69.17,1.81,1.81,0,0,1,.56.46,2.29,2.29,0,0,1,.38.67,2.42,2.42,0,0,1,.14.84A2.37,2.37,0,0,1,72.34,23.9Z"/><path class="cls-1" d="M82.58,20.34a4.31,4.31,0,0,0-1.35-.83,4.6,4.6,0,0,0-3.28,0,4.15,4.15,0,0,0-1.34.83,4,4,0,0,0-.9,1.24,3.55,3.55,0,0,0,0,3,4,4,0,0,0,.9,1.23,4.17,4.17,0,0,0,1.34.83,4.6,4.6,0,0,0,3.28,0,4.34,4.34,0,0,0,1.35-.83,3.93,3.93,0,0,0,.91-1.23,3.56,3.56,0,0,0,0-3A3.93,3.93,0,0,0,82.58,20.34ZM81.21,23.9a2.13,2.13,0,0,1-.38.67,2,2,0,0,1-.56.46,1.4,1.4,0,0,1-.69.17,1.37,1.37,0,0,1-.67-.17,1.9,1.9,0,0,1-.55-.46A2.2,2.2,0,0,1,78,23.9a2.51,2.51,0,0,1-.13-.82,2.56,2.56,0,0,1,.13-.84,2.21,2.21,0,0,1,.37-.67,1.83,1.83,0,0,1,.55-.46,1.42,1.42,0,0,1,.67-.17,1.45,1.45,0,0,1,.69.17,1.9,1.9,0,0,1,.56.46,2.14,2.14,0,0,1,.38.67,2.53,2.53,0,0,1,.13.84A2.48,2.48,0,0,1,81.21,23.9Z"/><path class="cls-1" d="M91.46,20.34a4.31,4.31,0,0,0-1.35-.83,4.61,4.61,0,0,0-3.28,0,4.18,4.18,0,0,0-1.34.83,4,4,0,0,0-.9,1.24,3.55,3.55,0,0,0,0,3,4,4,0,0,0,.9,1.23,4.2,4.2,0,0,0,1.34.83,4.61,4.61,0,0,0,3.28,0,4.34,4.34,0,0,0,1.35-.83,3.93,3.93,0,0,0,.91-1.23,3.55,3.55,0,0,0,0-3A3.92,3.92,0,0,0,91.46,20.34ZM90.09,23.9a2.12,2.12,0,0,1-.38.67,2,2,0,0,1-.56.46,1.39,1.39,0,0,1-.68.17,1.37,1.37,0,0,1-.67-.17,1.88,1.88,0,0,1-.55-.46,2.17,2.17,0,0,1-.37-.67,2.51,2.51,0,0,1-.13-.82,2.57,2.57,0,0,1,.13-.84,2.18,2.18,0,0,1,.37-.67,1.81,1.81,0,0,1,.55-.46,1.41,1.41,0,0,1,.67-.17,1.44,1.44,0,0,1,.68.17,1.9,1.9,0,0,1,.56.46,2.13,2.13,0,0,1,.38.67,2.53,2.53,0,0,1,.13.84A2.48,2.48,0,0,1,90.09,23.9Z"/><path class="cls-1" d="M120.3,20.34a4.31,4.31,0,0,0-1.35-.83,4.51,4.51,0,0,0-1.65-.3,4.45,4.45,0,0,0-1.63.3,4.14,4.14,0,0,0-1.34.83,4,4,0,0,0-.9,1.24,3.48,3.48,0,0,0-.33,1.5,3.57,3.57,0,0,0,.07.69c-.14.2-.28.39-.42.56a4.34,4.34,0,0,1-.68.7,1,1,0,0,1-.6.26.34.34,0,0,1-.28-.14,1.08,1.08,0,0,1-.18-.37,2.67,2.67,0,0,1-.1-.55c0-.22,0-.44,0-.68v-1q0-1,0-2.17l.08-2.29q0-1.14.07-2.23t0-2q0-1.46,0-2.35a8.29,8.29,0,0,0-.08-1,.45.45,0,0,0-.12-.13,1.31,1.31,0,0,0-.22-.15,1.71,1.71,0,0,0-.28-.12,1,1,0,0,0-.31-.05.87.87,0,0,0-.26.06l-.34.14-.32.17a.8.8,0,0,0-.2.15,2.6,2.6,0,0,0-.12.68c0,.36-.07.81-.1,1.33s-.05,1.1-.07,1.72,0,1.24,0,1.85q0,1.81,0,3.32t.1,2.72s0,.17,0,.42,0,.54.08.89c0,.19.05.38.09.58l0,0a3.3,3.3,0,0,1-.82.59,2.12,2.12,0,0,1-1,.22,1.18,1.18,0,0,1-.62-.15,1.51,1.51,0,0,1-.44-.4,2.11,2.11,0,0,1-.29-.55,4.82,4.82,0,0,1-.17-.6,3.91,3.91,0,0,1-.08-.56c0-.18,0-.32,0-.43V21.6q0-.88.07-2t.16-2.25q.1-1.15.21-2.27t.21-2c.06-.59.12-1.08.16-1.47s.06-.61.06-.67a.61.61,0,0,0-.12-.38,1.09,1.09,0,0,0-.3-.27,1.52,1.52,0,0,0-.4-.17,1.72,1.72,0,0,0-.43-.06H105a2.53,2.53,0,0,0-.8.17.58.58,0,0,0-.4.48q0,.5-.14,1.66t-.21,2.82q-.1,1.67-.18,3.76t-.08,4.47c0,.26,0,.51,0,.76l-.09.12a4.42,4.42,0,0,1-.68.7,1,1,0,0,1-.62.26.44.44,0,0,1-.42-.26,2.19,2.19,0,0,1-.19-.69,7.38,7.38,0,0,1-.06-1c0-.36,0-.74,0-1.12s0-.76-.08-1.12a3.66,3.66,0,0,0-.24-1,1.66,1.66,0,0,0-.5-.69,1.32,1.32,0,0,0-.86-.26,2.31,2.31,0,0,0-1.27.38,5,5,0,0,0-1.09,1,8.32,8.32,0,0,0-.9,1.28,14.82,14.82,0,0,0-.68,1.32q0-.59.07-1.16t0-1c0-.09,0-.22,0-.39s0-.33,0-.49,0-.31,0-.44a.71.71,0,0,0,0-.23,1.79,1.79,0,0,0-.31-.11,2.08,2.08,0,0,0-.57-.07h-.05l-.26,0-.35.06-.33.08a.84.84,0,0,0-.21.08,1.1,1.1,0,0,0-.1.39c0,.21-.06.46-.09.73s0,.54-.06.81,0,.48,0,.64q0,1.09.07,2t.16,1.52q.09.63.17,1a2.66,2.66,0,0,0,.09.35.27.27,0,0,0,.16.08l.26,0h.71l.27,0c.09,0,.14,0,.15-.08l0,0,.19-.53q.16-.42.4-1T96.34,24a12.81,12.81,0,0,1,.64-1.2,5.2,5.2,0,0,1,.68-.91,1,1,0,0,1,.67-.36c.22,0,.37.13.43.4a5.31,5.31,0,0,1,.12,1c0,.4,0,.83.06,1.29a4.21,4.21,0,0,0,.26,1.29,2.3,2.3,0,0,0,.71,1,2.19,2.19,0,0,0,1.41.4,2.35,2.35,0,0,0,.93-.18,3.34,3.34,0,0,0,.78-.47l.22-.19q0,1.16.09,2.14a33.56,33.56,0,0,0,.37,3.42,10.89,10.89,0,0,0,.59,2.26,4.21,4.21,0,0,0,.8,1.33,2.25,2.25,0,0,0,1,.63,4.21,4.21,0,0,0,1.18.16,1.54,1.54,0,0,0,.82-.25,2.39,2.39,0,0,0,.73-.75,4.33,4.33,0,0,0,.52-1.21,6,6,0,0,0,.2-1.64,7.06,7.06,0,0,0-.17-1.54,8.62,8.62,0,0,0-.46-1.45,9.6,9.6,0,0,0-.67-1.32q-.38-.62-.79-1.18a3.34,3.34,0,0,0,1.14-.53,6,6,0,0,0,.72-.62c0,.07.05.14.09.21a2.65,2.65,0,0,0,.62.84,1.31,1.31,0,0,0,.91.33,2.31,2.31,0,0,0,.91-.18,3.27,3.27,0,0,0,.78-.47,4.43,4.43,0,0,0,.66-.65c.15-.19.29-.37.41-.55a3.92,3.92,0,0,0,.61.72,4.16,4.16,0,0,0,1.34.83,4.45,4.45,0,0,0,1.63.3,4.51,4.51,0,0,0,1.65-.3,4.34,4.34,0,0,0,1.35-.83,3.9,3.9,0,0,0,.91-1.23,3.55,3.55,0,0,0,0-3A3.89,3.89,0,0,0,120.3,20.34Zm-12.47,10a7.31,7.31,0,0,1,.25,1.95c0,.26,0,.5,0,.71a2.08,2.08,0,0,1-.12.57.86.86,0,0,1-.26.37.67.67,0,0,1-.44.13q-.83,0-1.21-1.93a37.38,37.38,0,0,1-.5-5.76,11,11,0,0,1,.83,1,9.11,9.11,0,0,1,.83,1.32A8.53,8.53,0,0,1,107.84,30.3Zm11.1-6.4a2.11,2.11,0,0,1-.38.67A2,2,0,0,1,118,25a1.4,1.4,0,0,1-.69.17,1.37,1.37,0,0,1-.67-.17,1.89,1.89,0,0,1-.55-.46,2.23,2.23,0,0,1-.37-.67,2.48,2.48,0,0,1-.13-.82,2.53,2.53,0,0,1,.13-.84,2.24,2.24,0,0,1,.37-.67,1.82,1.82,0,0,1,.55-.46,1.42,1.42,0,0,1,.67-.17,1.45,1.45,0,0,1,.69.17,1.91,1.91,0,0,1,.56.46,2.13,2.13,0,0,1,.38.67,2.53,2.53,0,0,1,.14.84A2.48,2.48,0,0,1,118.93,23.9Z"/><path class="cls-1" d="M135.17,19.2h-.27a1.75,1.75,0,0,0-.49.07.37.37,0,0,0-.26.35c0,.32-.06.68-.12,1.09s-.14.82-.23,1.24-.19.83-.31,1.23a8.89,8.89,0,0,1-.38,1.07,3.46,3.46,0,0,1-.44.76.64.64,0,0,1-.49.29.66.66,0,0,1-.52-.32,3.15,3.15,0,0,1-.42-.84,10.28,10.28,0,0,1-.32-1.16q-.14-.64-.24-1.27c-.07-.42-.13-.82-.17-1.19s-.08-.67-.11-.9a.37.37,0,0,0-.28-.32,3.11,3.11,0,0,0-1-.1h-.53a1.72,1.72,0,0,0-.48.07.37.37,0,0,0-.26.35c0,.32-.06.68-.12,1.09s-.14.82-.22,1.24-.19.83-.3,1.23a8.07,8.07,0,0,1-.37,1.07,3.41,3.41,0,0,1-.44.76.64.64,0,0,1-.49.29.66.66,0,0,1-.52-.32,3.18,3.18,0,0,1-.42-.84,10.56,10.56,0,0,1-.32-1.16c-.1-.42-.18-.85-.25-1.27s-.12-.82-.17-1.19-.08-.67-.12-.9a.4.4,0,0,0-.29-.32,3.12,3.12,0,0,0-1-.1,4.35,4.35,0,0,0-.83.07q-.35.07-.38.33v.08q0,.28.06.94t.23,1.46a15.75,15.75,0,0,0,.43,1.67,7.52,7.52,0,0,0,.69,1.57,4,4,0,0,0,1,1.17,2.15,2.15,0,0,0,1.36.46,2.12,2.12,0,0,0,1.08-.28,3.31,3.31,0,0,0,.88-.75,5.34,5.34,0,0,0,.69-1.07,10.32,10.32,0,0,0,.52-1.26,9.84,9.84,0,0,0,.49,1.26,5.11,5.11,0,0,0,.66,1.07,3.18,3.18,0,0,0,.86.75,2.11,2.11,0,0,0,1.09.28,2.16,2.16,0,0,0,1.4-.48,4.49,4.49,0,0,0,1-1.23,8.32,8.32,0,0,0,.73-1.64q.29-.89.47-1.71t.26-1.44c.06-.42.09-.7.1-.84v0Q135.67,19.2,135.17,19.2Z"/><path class="cls-1" d="M152.56,22.32c-.06-.2-.14-.3-.24-.3s-.15.07-.22.21c-.21.39-.42.76-.65,1.13a9.91,9.91,0,0,1-.69,1,4.54,4.54,0,0,1-.68.7,1,1,0,0,1-.62.26.21.21,0,0,1-.2-.1.51.51,0,0,1-.06-.24,2.34,2.34,0,0,1,.19-.73q.19-.49.42-1c.15-.36.29-.72.42-1.06a2.57,2.57,0,0,0,.19-.82q0-1.3-1.61-1.3l-.61,0-.74-.06a6,6,0,0,1-.69-.11,1.43,1.43,0,0,1-.48-.17,2.43,2.43,0,0,0-.3-1.27,1,1,0,0,0-.94-.5.69.69,0,0,0-.43.14,1.3,1.3,0,0,0-.31.35,1.73,1.73,0,0,0-.19.44,1.58,1.58,0,0,0-.06.43,2.26,2.26,0,0,0,.12.8,2.31,2.31,0,0,0,.28.53,1.44,1.44,0,0,0,.3.32l.2.16a7.42,7.42,0,0,1-.41,1c-.16.33-.32.63-.46.89l-.15.26-.15.23a4.86,4.86,0,0,1-.87.95,3.53,3.53,0,0,1-1.08.6,4.1,4.1,0,0,1-1.38.21,2.4,2.4,0,0,1-1.31-.36,1.73,1.73,0,0,1-.75-1.12,5.81,5.81,0,0,0,.83.22A4.56,4.56,0,0,0,140,24a4.37,4.37,0,0,0,1.18-.15,3,3,0,0,0,1-.46,2.33,2.33,0,0,0,.67-.76,2.07,2.07,0,0,0,.25-1,2,2,0,0,0-.24-1,2.36,2.36,0,0,0-.66-.76,3.19,3.19,0,0,0-1-.49,4.1,4.1,0,0,0-1.2-.17,4.47,4.47,0,0,0-1.63.3,4.17,4.17,0,0,0-1.34.83,4,4,0,0,0-.9,1.24,3.48,3.48,0,0,0-.33,1.5,3.79,3.79,0,0,0,1,2.51,4.31,4.31,0,0,0,1.42,1,5.27,5.27,0,0,0,2.15.39,3.83,3.83,0,0,0,1.68-.35,5.28,5.28,0,0,0,1.29-.86,5.84,5.84,0,0,0,.92-1,9.33,9.33,0,0,0,.56-.91.73.73,0,0,0,.08-.16l0-.08c.14-.26.27-.52.39-.78s.22-.5.31-.72a5,5,0,0,0,.19-.53l.28.09.46.1.53.08.5.05a.41.41,0,0,1,.21.05.17.17,0,0,1,.09.15.48.48,0,0,1-.06.18l-.27.62c-.1.24-.2.48-.3.73a6.9,6.9,0,0,0-.24.75,2.61,2.61,0,0,0-.1.66,2.17,2.17,0,0,0,.13.74,1.87,1.87,0,0,0,.38.62,1.82,1.82,0,0,0,.64.43,2.28,2.28,0,0,0,.89.16,2.31,2.31,0,0,0,.91-.18,3.37,3.37,0,0,0,.79-.47,4.18,4.18,0,0,0,.65-.65,8,8,0,0,0,.51-.71c.15-.24.28-.46.39-.66l.25-.49a1.32,1.32,0,0,0,.11-.37,2.34,2.34,0,0,0,0-.44A2.12,2.12,0,0,0,152.56,22.32Zm-14.07-.24a2.13,2.13,0,0,1,.39-.59,1.91,1.91,0,0,1,.53-.4,1.37,1.37,0,0,1,.62-.15,2.06,2.06,0,0,1,.43,0,.94.94,0,0,1,.36.16.88.88,0,0,1,.25.3.93.93,0,0,1,.1.45.67.67,0,0,1-.19.48,1.41,1.41,0,0,1-.49.32,2.8,2.8,0,0,1-.65.17,4.84,4.84,0,0,1-.69.05l-.48,0a1.24,1.24,0,0,1-.37-.09A2.35,2.35,0,0,1,138.49,22.08Z"/><path class="cls-2" d="M42.41,9.15c-1.73-1.28-3.86-.12-5.33-.26a3.56,3.56,0,0,0-1.29-2.75c-2.12-1.62-5.24-.23-7.15,1-2.61,1.67-4.51,4.74-6,7.43.88-4,2.23-10.23-.39-13.4-1.65-2-3.74-1.13-4.89.44-2.46,3.36-1,7.28-.41,9.83-3.26-1.22-7.07-3-9.92-2.52a2.53,2.53,0,0,0-1.62.93c-1.27,2.27,3.67,4.35,5.35,4.81a2.43,2.43,0,0,0-1.51,4.2c-1.29.41-2.38.83-3.83,1.4s-5.69,2-2.08,3.53c1.25.53,3,0,3.91.31-1.62,1.22-2.32,3.66-1.09,4.78a3.39,3.39,0,0,0,2.15.87v0l0,0a11.66,11.66,0,0,0,4.89-1.36c-.58,1.48-2.57,4.92-1.26,5.79.64.42,1.84-.3,2.71-.95,1.78-1.33,3.08-3.78,4.3-5.66a13,13,0,0,0,.16,4.3c.24,1.28,1.16,3.81,2.95,4,3.71.3,3.36-6.15,2.44-8,.08,0,.06.12.11.18.65,1.66,4.58,6,6.58,4.54,1.39-1-.08-3.72-.59-4.66-.87-1.59-1.82-2.78-2.59-4.18,3.12,1.45,7.08,2.11,8.69-.86,1.33-2.45-1.92-5.17-4.89-5.76A16.79,16.79,0,0,0,34.58,15,42.39,42.39,0,0,0,39,13.8C40.55,13.25,45.08,11.14,42.41,9.15Z"/><path class="cls-1" d="M1.47,25.26c1.31.56,3.14.06,4.08.37-1.67,1.23-2.38,3.74-1.08,4.91,2.16,1.95,5.48.38,7.37-.41-.58,1.52-2.62,5-1.24,5.95.67.45,1.92-.29,2.82-.94,1.84-1.34,3.17-3.86,4.42-5.77a13.29,13.29,0,0,0,.22,4.43c.27,1.33,1.26,3.94,3.13,4.11,3.88.35,3.43-6.29,2.44-8.18.08,0,.06.13.12.18.7,1.71,4.86,6.2,6.93,4.76,1.44-1-.13-3.84-.67-4.81-.93-1.65-1.94-2.89-2.76-4.34,3.28,1.54,7.42,2.27,9.06-.78,1.36-2.51-2.08-5.35-5.18-6A16.9,16.9,0,0,0,34,16.57a44.36,44.36,0,0,0,4.62-1.12c1.59-.55,6.29-2.66,3.47-4.75-1.82-1.34-4-.17-5.57-.34a3.76,3.76,0,0,0-1.38-2.85c-2.23-1.7-5.48-.3-7.45.93C25,10.13,23,13.26,21.52,16c.87-4.13,2.2-10.51-.58-13.81C19.19.12,17,1,15.85,2.6c-2.53,3.43-1,7.49-.3,10.12C12.12,11.42,8.12,9.54,5.15,10a2.56,2.56,0,0,0-1.68.93c-1.3,2.32,3.89,4.53,5.64,5a2.46,2.46,0,0,0-1.52,4.31c-1.34.41-2.48.82-4,1.39S-2.32,23.64,1.47,25.26ZM9,30.72c-1.3.31-3.95.45-4.51-1.19-.43-1.25.84-3.43,2.21-4.13a17.46,17.46,0,0,1,2.44-.49,51.88,51.88,0,0,0,7.21-2.43C14.89,24.32,14.2,27.1,12.5,29A8.07,8.07,0,0,1,9,30.72Zm9.09-12a8.17,8.17,0,0,1,1.3.88A9.66,9.66,0,0,0,17.9,21,12.16,12.16,0,0,1,9,20.67c-.28-.24.59-.37.85-.29C12.51,19.37,15.35,19.22,18.1,18.75Zm-1.31-1.23c.6,0,1.44-.33,1.81.39C18.17,18.46,17.4,17.71,16.79,17.53ZM19.2,18c-.15-.15-.12-.35-.41-.47.52-.21,1.15,0,1.67-.15C20.64,17.94,19.54,17.74,19.2,18Zm.93,1.11c-.37-.14-.21-.42-.57-.56.22-.08.47,0,.67-.17C20.48,18.59,20.25,18.89,20.13,19.16Zm-1.43,3c.09,0,.15.11.12.18a20.32,20.32,0,0,1-5,6,36.91,36.91,0,0,1,3.83-6.12A4.17,4.17,0,0,0,18.7,22.16Zm-10,2.24c1.75-1.14,4.27-1.68,6.41-2.23C13.3,23.22,10.75,23.67,8.66,24.4ZM11,35.63a9.61,9.61,0,0,1,2-6.16c.69-.82,2-1.46,3-2.42a13.89,13.89,0,0,0,2.68-3.4C18.38,27.82,15,34.62,11,35.63ZM29,29.39c.69,1.1,2.33,3.62,1.21,4.67-.65.62-2.1-.05-3.22-.88-3.5-2.57-5-7.48-5.31-11.16.07-.09.11,0,.08.05,1.09,1.08,2.77,1.56,4.31,2.88C27.22,25.9,28.16,28,29,29.39Zm-3.47-5.44A10.06,10.06,0,0,1,22,21.3C23.83,20.26,24.44,22.94,25.57,23.95Zm-2.72-5c1.87-.75,4.1-.14,6.17-.1.16.05.12.16.07.27a24.41,24.41,0,0,1-5.29,1.3C23.21,20,23.29,19.41,22.85,19Zm10.92,7.22a10,10,0,0,1-7-1.4c-1.17-.94-1.46-2.61-2.67-3.73a32.18,32.18,0,0,0,6.21-1.89C34.32,19.11,38.56,24.45,33.77,26.17ZM22.51,18.11c3.11-.46,7.13-.64,10.16-1.42a6.73,6.73,0,0,1-2.58,1.88,23.81,23.81,0,0,0-7.53-.47m13.95-7c.69-.48,6.43-1.07,5.82,1.28-.35,1.33-2.66,2.1-3.71,2.46-1.5.51-2.68.69-4,1C35.49,14.53,36.57,12.52,36.51,11.14ZM33.64,16a9,9,0,0,1-2.57.52c-2.46.35-5.58.39-7.78.51a37.35,37.35,0,0,1,12.52-5.87C35.47,12.81,35,15,33.64,16ZM31.83,7.37a3.28,3.28,0,0,1,4.07,3.08A44.84,44.84,0,0,0,25.58,14.9a8.69,8.69,0,0,1-3.38,1.52C24,11.89,28.28,8,31.83,7.37ZM22.15,19c.39.45.43,1,.86,1.42-.42.3-1,.09-1.42.3-.2-.38-.07-.84-.18-1.24C21.61,19.1,21.92,19.18,22.15,19Zm-1.43,3.58c.42,1.72,1.23,4,2,6.26.65,2,1.54,4.47.92,6.32-.92,2.75-3.38,2.82-4.5.52a14.08,14.08,0,0,1-.7-7.66C19,26.2,20.71,24.27,20.72,22.57Zm-.87.94c-.32.51-.34.93-.65,1.44A21,21,0,0,1,20,21.81C20.33,21.56,19.74,23.23,19.86,23.51Zm-1.41-6.7c-.69-.91-1.15-1.89-1.73-2.83a15.46,15.46,0,0,1,4.12,2.43C20.22,17.22,19.25,16.68,18.45,16.81ZM16.05,3.4c.83-1.39,2.57-2.8,4.11-1.2,2.9,3,1.48,9.49.78,13.48a22.3,22.3,0,0,0-4.5-2.54C15.35,10.48,14,6.81,16.05,3.4Zm-12.18,8c1.18-1.22,3.38-.7,5.44-.19a56.23,56.23,0,0,1,6.32,2.14c1.17.44,1.36,2.93,2.25,3.48a15,15,0,0,1-5.29-.63C10.12,15.62,4.42,14.45,3.87,11.39Zm6.78,5c.62.09,1.34.51,2.1.67a16.83,16.83,0,0,1,4.12,1.07c-2.65.6-6,1-8.75,2C6,18.18,8.34,16.07,10.65,16.41Zm-2.31,4.3a9.92,9.92,0,0,1,1.14.56,10.58,10.58,0,0,0,3.4.76c-1.85.74-4.37,1.29-6.27,2.76-1.86,0-4.42.72-6-.81,1.55-1.37,3.69-1.92,5.73-2.62A8.93,8.93,0,0,1,8.35,20.71Z"/></g></g></svg>