<svg xmlns="http://www.w3.org/2000/svg" viewBox="0 0 157.81 43.19"><defs><style>.cls-1{fill:#232323;}</style></defs><title>Asset 1</title><g id="Layer_2" data-name="Layer 2"><g id="Layer_1-2" data-name="Layer 1"><path class="cls-1" d="M18.73,6.16c-.61-.22-1.5-.34-4.38,2.48-.36.35-.72.85-1.21.75S12.64,8.23,12.6,8C11.87,4.44,11.28.39,9.9,0a1.14,1.14,0,0,0-.29,0c-.08,0-.1,0-.18,0C8,.39,7.45,4.44,6.73,8c0,.21-.21,1.22-.54,1.37S5.08,8.39,4.81,8C3.11,5.4,1.11,3.64.41,3.93,0,4.11,0,4.65,0,5.06a35.8,35.8,0,0,0,.77,5.55c.39,2.1,1.67,2.17,1.67,2.17H16.88s1.28,0,1.73-2.44c.42-2.3.52-3.05.52-3.05S19.29,6.36,18.73,6.16Z"/><path class="cls-1" d="M6.22,21.49c0-1.43-.43-2.37-1.72-2.37a4,4,0,0,0-2.08.75L2.09,18a5.63,5.63,0,0,1,3.2-1c2.26,0,3.34,1.29,3.37,3.87,1-2.3,2.44-3.87,5.09-3.87,1.76,0,2.89.57,3.42,1.47l-.4,2.27a3.91,3.91,0,0,0-3.31-1.44c-2.91,0-4.13,2.76-4.81,5.6V36.09H6.22Z"/><path class="cls-1" d="M28,16.82a9.63,9.63,0,0,1,10,9.94,9.58,9.58,0,0,1-10,9.83A9.56,9.56,0,0,1,18,26.76,9.61,9.61,0,0,1,28,16.82Zm0,17.5a7.35,7.35,0,0,0,7.64-7.57A7.4,7.4,0,0,0,28,19.08a7.38,7.38,0,0,0-7.57,7.68A7.33,7.33,0,0,0,28,34.33Z"/><path class="cls-1" d="M51.85,16.82a9.63,9.63,0,0,1,10,9.94,9.58,9.58,0,0,1-10,9.83,9.56,9.56,0,0,1-9.94-9.83A9.61,9.61,0,0,1,51.85,16.82Zm0,17.5a7.35,7.35,0,0,0,7.64-7.57,7.6,7.6,0,1,0-15.21,0A7.33,7.33,0,0,0,51.85,34.33Z"/><path class="cls-1" d="M79.58,20.55a15,15,0,0,0-6.1-1.43c-3.08,0-5.24,1.36-5.24,3.48,0,1.72,1.11,2.15,3.34,2.69l4.13.93c3,.68,4.73,2,4.73,4.59,0,3.26-2.58,5.63-7.21,5.63a15.5,15.5,0,0,1-7-1.61l.54-2.15a13.71,13.71,0,0,0,6.35,1.69C76.31,34.37,78,32.89,78,31c0-1.61-1.47-2.22-3.55-2.69l-4-.9c-3-.72-4.73-1.87-4.73-4.66,0-3.34,3-5.74,7.86-5.74a17.36,17.36,0,0,1,6.6,1.4Z"/><path class="cls-1" d="M89.58,12.56v4.77h7.78v2H89.55v11c0,2.62,1.22,3.95,3.52,3.95a8.33,8.33,0,0,0,4.45-1.47l.86,1.94a11,11,0,0,1-6,1.72c-3.3,0-5.27-2-5.27-5.7V19.34H83.38v-2h3.77l.25-4.77Z"/><path class="cls-1" d="M119,34a12.1,12.1,0,0,1-7.68,2.55c-7.07,0-10.08-4.45-10.08-9.83s3.77-9.94,9.79-9.94c5.7,0,8.25,3.55,8.25,7.82a13.37,13.37,0,0,1-.32,2.94H103.75c.25,3.91,2.58,6.92,7.68,6.92a10.68,10.68,0,0,0,6.56-2.3Zm-2-9.76c0-2.83-1.79-5.38-6-5.38a6.89,6.89,0,0,0-7.21,6.71h13.06C116.92,25.22,117,24.75,117,24.29Z"/><path class="cls-1" d="M141.13,17.33l7.43,16.07,6.78-16.07h2.48L149.2,37.38c-1.51,3.66-3.12,5.81-6.74,5.81a7.91,7.91,0,0,1-4.27-1.29l.47-2a6.55,6.55,0,0,0,3.8,1.22c2.33,0,3.37-1.33,4.38-3.69l.61-1.47-9-18.58Z"/><path class="cls-1" d="M126.12,21.49c0-1.43-.43-2.37-1.72-2.37a4,4,0,0,0-2.08.75L122,18a5.63,5.63,0,0,1,3.2-1c2.26,0,3.34,1.29,3.37,3.87,1-2.3,2.44-3.87,5.09-3.87,1.76,0,2.89.57,3.42,1.47l-.4,2.27a3.91,3.91,0,0,0-3.31-1.44c-2.91,0-4.13,2.76-4.81,5.6V36.09h-2.44Z"/></g></g></svg>