<?xml version="1.0" encoding="utf-8"?>
<!-- Generator: Adobe Illustrator 20.0.0, SVG Export Plug-In . SVG Version: 6.00 Build 0)  -->
<svg version="1.1" id="Layer_1" xmlns="http://www.w3.org/2000/svg" xmlns:xlink="http://www.w3.org/1999/xlink" x="0px" y="0px"
	 viewBox="0 0 19.9 19.9" style="enable-background:new 0 0 19.9 19.9;" xml:space="preserve">
<title>Asset 5</title>
<g id="Layer_2">
	<g id="Layer_1-2">
		<path d="M19.4,17.2l-3.8-3.8c-0.4-0.4-1-0.6-1.6-0.4l-1.4-1.4c2.5-3.1,2-7.6-1.1-10s-7.6-2-10,1.1s-2,7.6,1.1,10
			c2.6,2.1,6.3,2.1,8.9,0l1.5,1.4c-0.1,0.5,0,1.1,0.4,1.5l3.8,3.8c0.6,0.6,1.6,0.6,2.3,0C20,18.8,20,17.8,19.4,17.2z M2.7,7.1
			c0-2.4,2-4.4,4.4-4.4s4.4,2,4.4,4.4s-2,4.4-4.4,4.4l0,0C4.7,11.5,2.7,9.5,2.7,7.1z"/>
	</g>
</g>
</svg>
