<svg xmlns="http://www.w3.org/2000/svg" viewBox="0 0 128.55 57.03"><defs><style>.cls-1{fill:#4C8A8C;}</style></defs><title>Asset 4</title><g id="Layer_2" data-name="Layer 2"><g id="Layer_1-2" data-name="Layer 1"><path class="cls-1" d="M42.94,53.3a.59.59,0,0,1-.66.66h-.53a.59.59,0,0,1-.66-.66V43.06a.59.59,0,0,1,.66-.66H46.4a3.4,3.4,0,0,1,0,6.8H43.6a.59.59,0,0,0-.66.66Zm0-6.6a.59.59,0,0,0,.66.66h2.79a1.4,1.4,0,0,0,1.4-1.57,1.39,1.39,0,0,0-1.39-1.54H43.6a.59.59,0,0,0-.66.66Z"/><path class="cls-1" d="M56.16,42.4a.74.74,0,0,1,.76.51L61,53.2c.2.46,0,.76-.51.76h-.69a.74.74,0,0,1-.76-.51l-.56-1.39a.74.74,0,0,0-.76-.51H53.62a.74.74,0,0,0-.76.51l-.56,1.39a.74.74,0,0,1-.76.51h-.69c-.5,0-.71-.3-.51-.76l4.11-10.29a.74.74,0,0,1,.76-.51Zm0,3.68c-.23-.54-.66-.54-.89,0l-1.11,2.77c-.18.46,0,.76.53.76h2c.5,0,.71-.3.53-.76Z"/><path class="cls-1" d="M69.71,43.64a.59.59,0,0,1-.66.66H67.2a.59.59,0,0,0-.66.66V53.3a.59.59,0,0,1-.66.66H65.3a.59.59,0,0,1-.66-.66V45A.59.59,0,0,0,64,44.3H62.12a.59.59,0,0,1-.66-.66v-.58a.59.59,0,0,1,.66-.66h6.93a.59.59,0,0,1,.66.66Z"/><path class="cls-1" d="M79.62,43.64a.59.59,0,0,1-.66.66H77.11a.59.59,0,0,0-.66.66V53.3a.59.59,0,0,1-.66.66h-.58a.59.59,0,0,1-.66-.66V45a.59.59,0,0,0-.66-.66H72a.59.59,0,0,1-.66-.66v-.58A.59.59,0,0,1,72,42.4H79a.59.59,0,0,1,.66.66Z"/><path class="cls-1" d="M85.31,44.3a.59.59,0,0,0-.66.66v1.73a.59.59,0,0,0,.66.66h4.21a.59.59,0,0,1,.66.66v.58a.59.59,0,0,1-.66.66H85.31a.59.59,0,0,0-.66.66V51.4a.59.59,0,0,0,.66.66h5a.59.59,0,0,1,.66.66v.58a.59.59,0,0,1-.66.66H83.41a.59.59,0,0,1-.66-.66V43.06a.59.59,0,0,1,.66-.66h6.93a.59.59,0,0,1,.66.66v.58a.59.59,0,0,1-.66.66Z"/><path class="cls-1" d="M101.31,54a.92.92,0,0,1-.81-.41l-2.76-3.93a.88.88,0,0,0-.79-.41H96.4a.59.59,0,0,0-.66.66V53.3a.59.59,0,0,1-.66.66h-.53a.59.59,0,0,1-.66-.66V43.06a.59.59,0,0,1,.66-.66h4.66a3.21,3.21,0,0,1,3.24,3.38,3.25,3.25,0,0,1-2,3.2c-.46.18-.59.45-.33.84l2.34,3.32c.31.46.13.81-.41.81Zm-5.56-7.27a.59.59,0,0,0,.66.66h2.79a1.4,1.4,0,0,0,1.4-1.57,1.39,1.39,0,0,0-1.39-1.54H96.4a.59.59,0,0,0-.66.66Z"/><path class="cls-1" d="M113.37,54a.86.86,0,0,1-.79-.43l-4.69-6.92c-.36-.53-.81-.4-.81.25v6.44a.59.59,0,0,1-.66.66h-.53a.59.59,0,0,1-.66-.66V43.07a.59.59,0,0,1,.66-.66h.88a.86.86,0,0,1,.79.43l4.69,6.92c.36.53.81.4.81-.25V43.07a.59.59,0,0,1,.66-.66h.53a.59.59,0,0,1,.66.66V53.31a.59.59,0,0,1-.66.66Z"/><path class="cls-1" d="M125.47,44.87c.1.43-.16.69-.61.69h-.64c-.4,0-.53-.2-.73-.55a2.2,2.2,0,0,0-1.87-.89c-1.09,0-2,.66-2,1.44s.79,1.06,2.51,1.55,3.9,1.14,3.9,3.43c0,2-2,3.57-4.39,3.57a4.27,4.27,0,0,1-4.31-2.87c-.1-.45.16-.69.61-.69h.63c.4,0,.54.2.73.54a2.66,2.66,0,0,0,2.34,1.12c1.35,0,2.49-.76,2.49-1.67,0-.74-.66-1.06-2.54-1.6-1.63-.48-3.86-1.12-3.86-3.38a3.65,3.65,0,0,1,3.91-3.34A3.84,3.84,0,0,1,125.47,44.87Z"/><path class="cls-1" d="M24.32,16.62c-1.71-3.71-3.5-7.54-3.5-8.88A5.58,5.58,0,0,1,26.4,2.2a5.29,5.29,0,0,1,5.54,5.21c0,2.24-1,3.18-2,3.3a1.65,1.65,0,0,1-1.83-1.14,1.06,1.06,0,0,0-1.34-.77A1.05,1.05,0,0,0,26,10.1a3.8,3.8,0,0,0,4.24,2.77c1.79-.24,3.91-1.79,3.91-5.46A7.52,7.52,0,0,0,26.4,0a7.74,7.74,0,0,0-7.74,7.74c0,1.71,1.34,4.68,3.71,9.78,2.77,6,6.19,13.4,6.19,18,0,6.4-4.6,13.16-13.2,13.16A13.22,13.22,0,0,1,2.2,35.52c0-6.64,4.36-9.21,6.23-10,2.69-1.1,5.3-.86,6.19,0A1.09,1.09,0,1,0,16.17,24c-1.67-1.67-5.25-1.87-8.55-.49-2.28.94-7.62,4-7.62,12a15.4,15.4,0,0,0,15.36,15.4,14.7,14.7,0,0,0,11.57-5.09,15.86,15.86,0,0,0,3.83-10.27C30.76,30.43,27.21,22.77,24.32,16.62Z"/><path class="cls-1" d="M49.82,18.29a9.83,9.83,0,0,0-6.8,3.3l.53-2a1,1,0,0,0-.69-1.22,1,1,0,0,0-1.22.73L39,29.29C37.6,32,36.09,34.83,34.63,37.6c-5.46,10.14-8.43,16-7,18.37a2.15,2.15,0,0,0,2,1.06c4.48,0,6.93-10.22,7.33-12.22L39.52,35a5.9,5.9,0,0,0,.81,1.39,5.64,5.64,0,0,0,4.56,2.2c4.4,0,9-4.36,10.51-9.9.9-3.22.49-6.23-1-8.23A5.64,5.64,0,0,0,49.82,18.29ZM35,44.36C34.1,48.68,31.74,55,29.62,55c-.08,0-.29,0-.33-.08-.9-1.55,3.71-10.14,7.09-16.42l.37-.77ZM53.49,28.19c-1.22,4.6-5.17,8.47-8.6,8.47a3.61,3.61,0,0,1-3-1.47c-1.14-1.47-1.43-3.91-.73-6.48,1.22-4.56,5.17-8.43,8.64-8.43a3.63,3.63,0,0,1,3,1.43C53.94,23.18,54.18,25.62,53.49,28.19Z"/><path class="cls-1" d="M127.79,27.62a1,1,0,0,0-1.22.69c-.12.49-2,8.43-8.23,8.43-3.61,0-3.12-4.71-2.47-7.55l.15-.51a1,1,0,0,0,0-.18l.14-.51L119,18.33H122c.77,0,1.14-.37,1.14-.94s-.37-1-1.39-1h-2.28l2-7a1,1,0,0,0-.69-1.18.94.94,0,0,0-1.18.69l-2.16,7.54H114a.93.93,0,0,0-1,.94.94.94,0,0,0,1,1h2.93l-2.61,9.17-.14.5a.94.94,0,0,0-.07.19c-.61,2.36-2.85,8.51-6.11,8.51a2.13,2.13,0,0,1-1.83-.81c-1.47-2-.41-6.93.16-8.72l2-7.58a1,1,0,0,0-.69-1.22,1,1,0,0,0-1.22.73l-2,7.54a10.82,10.82,0,0,0-.45,1.75c-.69,2.53-2.89,8.31-6.07,8.31a2.13,2.13,0,0,1-1.83-.81c-1-1.37-.82-4.14-.42-6.31A12.5,12.5,0,0,0,96,28.15a3,3,0,0,0,.06-.48c.05-.18.1-.35.15-.5l2-7.58a1,1,0,0,0-.69-1.22,1,1,0,0,0-1.22.73l-2,7.54a20.74,20.74,0,0,0-.54,2.14c-1.2,3.67-3.67,5.49-6.54,4.62a20.84,20.84,0,0,0,3.14-10,6.79,6.79,0,0,0-.69-3.26,2.84,2.84,0,0,0-2.61-1.67c-3.26,0-5.74,4.56-5.74,8.6,0,3.46,1.34,6.07,2.73,7.21a5.35,5.35,0,0,1-4.4,2.32,4.2,4.2,0,0,1-3.18-1.79c-1.22-1.59-1.51-4.16-.77-6.88,1.06-3.87,3.83-7.25,6.93-8.51a1.06,1.06,0,0,0,.61-1.34,1.08,1.08,0,0,0-1.39-.61c-3.71,1.47-7,5.46-8.19,9.9a14.42,14.42,0,0,0-.39,2.1c-1,2.79-3,7.19-5.72,7.19-1.47,0-2-1.63-2-2.93,0-2.36,1.67-5.87,1.67-7.78,0-2.12-.57-3.1-3.3-3.71L61,21.55c.65-6-1-7-2.16-6.52S57,17.31,57,18.74a5.35,5.35,0,0,0,2,4.36,19,19,0,0,1-.61,5.34c-.16.69-.61,1.79.29,2.12s1.18-.37,1.51-1.22a18.4,18.4,0,0,0,.65-5.74c3.34.69,4.32.61,4.32,2.57,0,2.4-1.55,5.17-1.55,8.07,0,3.18,2.08,4.48,4,4.48,2.75,0,4.74-2.49,6.05-5a7.4,7.4,0,0,0,1.2,2.39,6.21,6.21,0,0,0,4.85,2.61A8,8,0,0,0,86,35.24a7.17,7.17,0,0,0,7.4-1.8,6.77,6.77,0,0,0,1.11,3.63,4,4,0,0,0,3.42,1.59c2.48,0,4.36-2,5.66-4.2a6.09,6.09,0,0,0,1,2.61A4.15,4.15,0,0,0,108,38.66c2.42,0,4.24-1.88,5.54-4,.37,2.25,1.65,4,4.81,4,7.13,0,9.9-8.84,10.18-10.06A.83.83,0,0,0,127.79,27.62ZM85.22,32.55c-.94-.53-1.79-3.18-1.79-5.46,0-3.14,1.87-6.48,3.63-6.48a.84.84,0,0,1,.77.53,5.44,5.44,0,0,1,.41,2.28A17.05,17.05,0,0,1,85.22,32.55Z"/></g></g></svg>
